<svg width="21" height="21" viewBox="0 0 21 21" fill="none" xmlns="http://www.w3.org/2000/svg">
<path d="M10.5001 0C4.7011 0 0 4.72075 0 10.544C0 15.7667 3.78548 20.092 8.74886 20.9296V12.7437H6.21594V9.79796H8.74886V7.62588C8.74886 5.10564 10.2817 3.73225 12.5209 3.73225C13.5934 3.73225 14.515 3.8125 14.7826 3.84784V6.48217L13.2295 6.48292C12.012 6.48292 11.7773 7.06377 11.7773 7.91643V9.79645H14.6824L14.3035 12.7422H11.7773V21C16.9724 20.3651 21 15.9296 21 10.5409C21 4.72075 16.2989 0 10.5001 0Z" fill="white"/>
</svg>
