<svg width="145" height="44" viewBox="0 0 145 44" fill="none" xmlns="http://www.w3.org/2000/svg">
<path d="M138.829 43.0374H5.33958C2.40285 43.0374 0 40.6165 0 37.6577V5.3797C0 2.42085 2.4028 0 5.33958 0H138.829C141.766 0 144.169 2.42085 144.169 5.3797V37.6577C144.169 40.6165 141.766 43.0374 138.829 43.0374" fill="black"/>
<path d="M50.6369 11.0213C50.6369 11.9227 50.3719 12.6406 49.8413 13.176C49.2385 13.8128 48.453 14.1314 47.4873 14.1314C46.5624 14.1314 45.7761 13.8086 45.1295 13.1622C44.4817 12.5162 44.1584 11.7151 44.1584 10.7594C44.1584 9.80322 44.4817 9.00265 45.1295 8.35614C45.7761 7.71022 46.5624 7.38696 47.4873 7.38696C47.9462 7.38696 48.3855 7.47739 48.8026 7.6577C49.2197 7.83845 49.5543 8.07839 49.8046 8.37887L49.2414 8.94666C48.8172 8.43603 48.2332 8.1809 47.4873 8.1809C46.8128 8.1809 46.2296 8.41968 45.7374 8.89753C45.2451 9.37586 44.999 9.99616 44.999 10.7594C44.999 11.5227 45.2451 12.1429 45.7374 12.6213C46.2296 13.0992 46.8128 13.3379 47.4873 13.3379C48.2028 13.3379 48.7993 13.0978 49.2769 12.6171C49.5869 12.3039 49.7662 11.8686 49.8141 11.3095H47.4872V10.5341H50.5922C50.6222 10.7027 50.6368 10.8645 50.6368 11.0213" fill="white"/>
<path d="M50.636 11.0212H50.5292C50.5283 11.9021 50.2729 12.5863 49.7648 13.0999L49.7637 13.1008L49.7632 13.1016C49.1796 13.7164 48.4295 14.0224 47.4863 14.0237C46.5862 14.0224 45.8327 13.7131 45.2036 13.086C44.5759 12.4577 44.2655 11.6906 44.2643 10.7593C44.2655 9.82756 44.5759 9.06094 45.2036 8.43305C45.8327 7.80555 46.5862 7.49578 47.4863 7.49448C47.9314 7.49448 48.3553 7.582 48.7595 7.75637C49.1641 7.93209 49.4837 8.16236 49.7219 8.44823L49.8036 8.3788L49.7282 8.30273L49.165 8.8709L49.2404 8.94658L49.3227 8.87772C48.8787 8.3418 48.2556 8.07164 47.4863 8.07324C46.7868 8.07237 46.1715 8.3242 45.6625 8.82018C45.1486 9.31775 44.8904 9.97297 44.8913 10.7593C44.8904 11.5457 45.1486 12.2009 45.6625 12.6985C46.1715 13.1945 46.7868 13.4463 47.4863 13.4454C48.2255 13.4467 48.8555 13.194 49.3514 12.6931C49.6826 12.3585 49.8704 11.895 49.9196 11.3187L49.9296 11.2019H47.5931V10.6416H50.5913V10.534L50.4861 10.5529C50.5153 10.7161 50.5291 10.8711 50.5291 11.0212H50.7427C50.7427 10.8577 50.7276 10.6896 50.6964 10.5148L50.6805 10.4264H47.3796V11.417H49.8132V11.3095L49.7069 11.3002C49.6598 11.8416 49.4887 12.2493 49.2004 12.541C48.7416 13.0016 48.1784 13.2289 47.4863 13.2302C46.8369 13.2293 46.2858 13.0041 45.8107 12.5439C45.3401 12.0853 45.1061 11.4999 45.1049 10.7593C45.1061 10.0188 45.3401 9.43332 45.8107 8.97477C46.2858 8.51458 46.8368 8.28929 47.4863 8.28842C48.2085 8.29016 48.7537 8.53053 49.1588 9.01597L49.2339 9.10591L49.8792 8.45491L49.9484 8.38518L49.8854 8.30984C49.623 7.99471 49.2735 7.74457 48.8438 7.55889C48.4133 7.37262 47.959 7.2793 47.4863 7.2793C46.5369 7.27848 45.7176 7.61469 45.0531 8.28005C44.3861 8.94411 44.0499 9.77882 44.0508 10.7593C44.0499 11.7394 44.3861 12.5746 45.0535 13.239C45.7176 13.9039 46.5369 14.2398 47.4863 14.2389C48.475 14.2398 49.2952 13.9089 49.9176 13.2503L49.8403 13.176L49.9158 13.2521C50.469 12.6952 50.7435 11.9429 50.7427 11.0212H50.6359H50.636ZM55.5583 8.32459H52.6403V10.3715H55.2718V11.1472H52.6403V13.194H55.5583V13.9871H51.8177V7.53152H55.5583V8.32459" fill="white"/>
<path d="M55.5595 8.32449V8.2169H52.5348V10.479H55.1662V11.0392L52.5347 11.0395V13.3015H55.4527V13.8794H51.9257V7.63901H55.4527V8.32449H55.5595V8.2169V8.32449H55.6663V7.42383H51.7122V14.0946H55.6663V13.0864H52.7483V11.2547H55.3798V10.2638H52.7483V8.43208H55.6663V8.32449H55.5595V8.32449ZM59.0315 13.9871H58.2076V8.32444H56.418V7.53137H60.8211V8.32444H59.0315V13.987" fill="white"/>
<path d="M59.0317 13.9871V13.8794H58.3146V8.2169H56.525V7.63906H60.7145V8.2169H58.9249V13.987H59.0317V13.8794V13.987H59.1385V8.43208H60.9281V7.42383H56.3114V8.43203H58.101V14.0946H59.1385V13.987H59.0317V13.9871ZM64.0071 13.9871V7.53137H64.8301V13.987H64.0071" fill="white"/>
<path d="M64.0106 13.9871H64.1174V7.63901H64.7268V13.8794H64.0106V13.987H64.1174H64.0106V14.0946H64.9404V7.42383H63.9038V14.0946H64.0106V13.987V13.9871ZM68.4858 13.9871H67.6619V8.32444H65.8724V7.53137H70.2754V8.32444H68.4858V13.987" fill="white"/>
<path d="M68.4843 13.9872V13.8796H67.7672V8.21707H65.9777V7.63923H70.1672V8.21707H68.3776V13.9872H68.4843V13.8796V13.9872H68.5912V8.43225H70.3807V7.424H65.7642V8.43221H67.5537V14.0947H68.5912V13.9871H68.4843V13.9872ZM74.5189 12.6125C74.9932 13.0962 75.5735 13.3378 76.2597 13.3378C76.946 13.3378 77.5266 13.0962 78.0001 12.6125C78.4748 12.1288 78.7126 11.5104 78.7126 10.7594C78.7126 10.0084 78.4748 9.39007 78.0001 8.90633C77.5266 8.42258 76.946 8.1809 76.2597 8.1809C75.5735 8.1809 74.9932 8.42258 74.5189 8.90633C74.0454 9.39007 73.8077 10.0084 73.8077 10.7594C73.8077 11.5104 74.0454 12.1288 74.5189 12.6125ZM78.6091 13.1529C77.9792 13.8056 77.1958 14.1314 76.2597 14.1314C75.3228 14.1314 74.5397 13.8056 73.9112 13.1529C73.2808 12.501 72.9671 11.703 72.9671 10.7594C72.9671 9.81579 73.2808 9.01764 73.9112 8.36586C74.5398 7.71307 75.3228 7.38696 76.2597 7.38696C77.1909 7.38696 77.9721 7.71481 78.605 8.37007C79.237 9.02528 79.5532 9.82169 79.5532 10.7594C79.5532 11.703 79.2377 12.501 78.6091 13.1529Z" fill="white"/>
<path d="M74.5155 12.6124L74.4396 12.6881C74.9315 13.1911 75.5451 13.4467 76.2563 13.4454C76.9671 13.4467 77.5816 13.1911 78.0726 12.6881C78.5677 12.1845 78.8168 11.533 78.816 10.7593C78.8167 9.98564 78.5677 9.33415 78.0726 8.83058C77.5816 8.32749 76.9671 8.07198 76.2563 8.07324C75.5451 8.07198 74.9315 8.32749 74.4396 8.83058C73.9457 9.33415 73.6962 9.98564 73.6975 10.7593C73.6962 11.533 73.9457 12.1845 74.4396 12.6881L74.5155 12.6124L74.5915 12.5368C74.1385 12.0723 73.9119 11.4881 73.9111 10.7593C73.9119 10.0306 74.1385 9.44638 74.5914 8.98188C75.0486 8.51753 75.5947 8.28973 76.2563 8.28847C76.9175 8.28973 77.4648 8.51753 77.9208 8.98188C78.3746 9.44638 78.6012 10.0306 78.602 10.7593C78.6012 11.488 78.3746 12.0723 77.9208 12.5368C77.4648 13.0012 76.9175 13.2289 76.2563 13.2302C75.5947 13.2289 75.0486 13.0012 74.5914 12.5368L74.5155 12.6124ZM78.6057 13.1528L78.5294 13.0781C77.917 13.7102 77.1682 14.0225 76.2563 14.0237C75.344 14.0224 74.5952 13.7102 73.984 13.0781L73.9811 13.0747L73.984 13.0781C73.3729 12.4438 73.0714 11.6789 73.0705 10.7593C73.0714 9.8397 73.3729 9.07482 73.984 8.4406C74.5952 7.80845 75.344 7.49579 76.2563 7.49453C77.1623 7.49579 77.9094 7.80975 78.5252 8.44519C79.1384 9.08236 79.4417 9.84604 79.443 10.7593C79.4417 11.6789 79.1393 12.4438 78.5294 13.0781L78.6057 13.1528L78.6825 13.2276C79.3299 12.5577 79.6573 11.7268 79.6566 10.7593C79.6574 9.79734 79.3286 8.9681 78.6783 8.29524C78.0276 7.61972 77.2124 7.27814 76.2563 7.2793C75.2952 7.27814 74.4776 7.61812 73.831 8.29103V8.29055C73.1823 8.9609 72.8561 9.79183 72.8569 10.7593C72.8561 11.7268 73.1823 12.5577 73.831 13.228L73.8339 13.2311L73.831 13.2276C74.4776 13.9005 75.2952 14.2398 76.2563 14.2389C77.217 14.2398 78.0346 13.9005 78.6825 13.2276L78.6057 13.1528V13.1528ZM80.7052 13.9872V7.53147H81.7073L84.8213 12.5535H84.8568L84.8213 11.3094V7.53147H85.6453V13.9871H84.7859L81.5279 8.72168H81.4924L81.5279 9.9662V13.9871H80.7053" fill="white"/>
<path d="M80.7101 13.9871H80.817V7.63901H81.6529L84.767 12.661H84.9714L84.933 11.3078V7.63906H85.5433V13.8794H84.85L81.5921 8.61404H81.3877L81.426 9.96789V13.8794H80.7102V13.987H80.817H80.7102V14.0946H81.6396V9.96445L81.6041 8.71873L81.4973 8.72163V8.82922H81.5328V8.72163L81.4422 8.77883L84.7315 14.0946H85.7569V7.42383H84.7195V11.3106L84.7549 12.5563L84.8617 12.5534V12.4458H84.8262V12.5534L84.9168 12.4963L81.7713 7.42383H80.6034V14.0946H80.7102V13.987L80.7101 13.9871ZM114.201 32.2779H116.193V18.8275H114.201L114.201 32.2779ZM132.149 23.6726L129.865 29.5041H129.796L127.426 23.6726H125.279L128.834 31.8231L126.807 36.3568H128.887L134.365 23.6726L132.149 23.6726ZM120.848 30.7502C120.195 30.7502 119.285 30.4215 119.285 29.6079C119.285 28.5697 120.419 28.1717 121.397 28.1717C122.274 28.1717 122.685 28.3621 123.218 28.6219C123.063 29.8676 121.999 30.7502 120.848 30.7502V30.7502ZM121.089 23.3784C119.646 23.3784 118.152 24.0188 117.534 25.4378L119.302 26.1817C119.68 25.4378 120.384 25.1952 121.123 25.1952C122.153 25.1952 123.201 25.8185 123.218 26.926V27.0643C122.857 26.8566 122.085 26.5452 121.14 26.5452C119.234 26.5452 117.292 27.6005 117.292 29.5734C117.292 31.3731 118.856 32.5326 120.607 32.5326C121.947 32.5326 122.685 31.927 123.15 31.2176H123.218V32.2557H125.141V27.0987C125.141 24.7111 123.373 23.3784 121.089 23.3784V23.3784ZM108.773 25.3099H105.939V20.6995H108.773C110.263 20.6995 111.109 21.9422 111.109 23.0047C111.109 24.047 110.263 25.3099 108.773 25.3099ZM108.722 18.8275H103.948V32.2779H105.939V27.182H108.722C110.931 27.182 113.102 25.571 113.102 23.0047C113.102 20.4385 110.931 18.8275 108.722 18.8275V18.8275ZM82.6854 30.7527C81.3087 30.7527 80.1561 29.5915 80.1561 27.9965C80.1561 26.3847 81.3087 25.2058 82.6854 25.2058C84.0445 25.2058 85.1111 26.3847 85.1111 27.9965C85.1111 29.5915 84.0445 30.7527 82.6854 30.7527H82.6854ZM84.9735 24.4258H84.9046C84.4575 23.8885 83.5968 23.4032 82.5131 23.4032C80.2421 23.4032 78.1605 25.4138 78.1605 27.9965C78.1605 30.5619 80.2421 32.5553 82.5131 32.5553C83.5968 32.5553 84.4575 32.0698 84.9046 31.5155H84.9735V32.1741C84.9735 33.9251 84.0445 34.861 82.5477 34.861C81.3262 34.861 80.5692 33.9767 80.2592 33.2315L78.5218 33.9595C79.0207 35.1728 80.3456 36.6637 82.5477 36.6637C84.8875 36.6637 86.8661 35.2767 86.8661 31.8967V23.6806H84.9735V24.4258ZM88.2423 32.2779H90.238V18.827H88.2423V32.2779ZM93.1801 27.8406C93.1284 26.0724 94.5392 25.1713 95.5542 25.1713C96.3461 25.1713 97.0168 25.5697 97.24 26.1422L93.1801 27.8406ZM99.3737 26.3153C98.9956 25.2923 97.8423 23.4032 95.4853 23.4032C93.1455 23.4032 91.2016 25.2579 91.2016 27.9792C91.2016 30.5447 93.1284 32.5553 95.7089 32.5553C97.791 32.5553 98.9956 31.2726 99.4944 30.5274L97.9459 29.4871C97.4301 30.25 96.7242 30.7527 95.7089 30.7527C94.694 30.7527 93.9715 30.2845 93.5067 29.3661L99.5798 26.8352L99.3737 26.3153ZM50.9884 24.8073V26.7486H55.5991C55.4615 27.8406 55.1001 28.6378 54.5495 29.1926C53.8788 29.8688 52.8293 30.614 50.9883 30.614C48.1495 30.614 45.9303 28.3087 45.9303 25.4486C45.9303 22.5886 48.1495 20.283 50.9884 20.283C52.5197 20.283 53.6376 20.8898 54.4636 21.6698L55.8227 20.3006C54.6701 19.191 53.1387 18.3417 50.9884 18.3417C47.1 18.3417 43.8312 21.5312 43.8312 25.4486C43.8312 29.3661 47.1 32.5553 50.9884 32.5553C53.0875 32.5553 54.6701 31.8623 55.9087 30.5619C57.1819 29.2792 57.5777 27.4766 57.5777 26.0207C57.5777 25.5697 57.5435 25.154 57.4742 24.8073H50.9884ZM62.8197 30.7527C61.443 30.7527 60.2558 29.6086 60.2558 27.9792C60.2558 26.3325 61.443 25.2058 62.8197 25.2058C64.1958 25.2058 65.383 26.3325 65.383 27.9792C65.383 29.6087 64.1958 30.7527 62.8197 30.7527ZM62.8197 23.4032C60.3075 23.4032 58.2601 25.3272 58.2601 27.9792C58.2601 30.614 60.3075 32.5553 62.8197 32.5553C65.3313 32.5553 67.3787 30.614 67.3787 27.9792C67.3787 25.3272 65.3313 23.4032 62.8197 23.4032ZM72.7654 30.7527C71.3893 30.7527 70.202 29.6086 70.202 27.9792C70.202 26.3325 71.3893 25.2058 72.7654 25.2058C74.1416 25.2058 75.3288 26.3325 75.3288 27.9792C75.3288 29.6087 74.1416 30.7527 72.7654 30.7527H72.7654ZM72.7654 23.4032C70.2534 23.4032 68.2064 25.3272 68.2064 27.9792C68.2064 30.614 70.2534 32.5553 72.7654 32.5553C75.2771 32.5553 77.3246 30.614 77.3246 27.9792C77.3246 25.3272 75.2771 23.4032 72.7654 23.4032H72.7654Z" fill="white"/>
<path d="M13.441 11.2681C13.1648 11.5181 13 11.9352 13 12.4888V12.3637V30.6325V30.5122C13 31.0235 13.1414 31.4183 13.3808 31.6726L13.4419 31.7313V31.7316C13.6357 31.9071 13.8842 32.0003 14.1691 32C14.4473 32 14.7605 31.911 15.0909 31.7229L27.0349 24.9118L31.1375 22.572C31.6586 22.2749 31.9511 21.8917 32 21.5013V21.4997C31.9511 21.1084 31.6586 20.7255 31.1376 20.4283L27.0345 18.0888L15.0909 11.2777C14.7598 11.0894 14.4465 11 14.1674 11C13.8829 11 13.6348 11.0929 13.441 11.2681H13.441Z" fill="#00C1FF"/>
<path d="M13.4155 32L13.358 31.9397C13.1329 31.6788 13 31.2736 13 30.7489V30.8724V12.129V12.2528C13 11.6846 13.155 11.2566 13.4146 11L23 21.5003L13.4155 32Z" fill="url(#paint0_linear_310_549)"/>
<path d="M26.6573 25L23 21.4997L26.657 18L31.072 20.4002C31.6326 20.705 31.9474 21.0979 32 21.4994V21.501C31.9474 21.9015 31.6326 22.2947 31.072 22.5995L26.6573 25" fill="url(#paint1_linear_310_549)"/>
<path d="M13.7488 32C13.4555 32.0002 13.1996 31.9115 13 31.7443V31.7441L23.4994 22L27 25.2493L14.6983 31.7361C14.3579 31.9152 14.0354 32 13.7488 32Z" fill="url(#paint2_linear_310_549)"/>
<path d="M23.4999 22L13 11.2809C13.1996 11.0973 13.4552 11 13.7481 11C14.0355 11 14.3582 11.0936 14.6992 11.291L27 18.4264L23.4999 22" fill="url(#paint3_linear_310_549)"/>
<path d="M13.804 32C13.5136 32 13.2599 31.9095 13.0623 31.7391L13.0619 31.7394C13.0611 31.7386 13.0603 31.7379 13.0593 31.7372L13.0053 31.6867C13.0036 31.6852 13.002 31.6833 13 31.6815L13.0623 31.6219C13.2599 31.7923 13.5133 31.8828 13.8037 31.8825C14.0874 31.8825 14.4067 31.7961 14.7436 31.6135L26.922 25L27 25.0746L26.921 25.1175L14.7436 31.7306C14.4365 31.897 14.1444 31.9837 13.8806 31.9982C13.8551 31.9994 13.8295 32 13.804 32" fill="url(#paint4_linear_310_549)"/>
<path d="M27.0771 25L27 24.9339L31.1315 22.9211C31.6562 22.6656 31.9508 22.3358 32 22C32 22.1232 31.9679 22.2465 31.9042 22.3664C31.7757 22.6081 31.5181 22.8365 31.1315 23.0249L27.0771 25" fill="url(#paint5_linear_310_549)"/>
<path d="M32 22C31.9508 21.5512 31.6562 21.112 31.1316 20.7712L27 18.0881L27.0771 18H27.0774L31.1316 20.6332C31.71 21.0092 31.9997 21.5045 32 22" fill="url(#paint6_linear_310_549)"/>
<path d="M26.9216 18L14.7436 11.3868C14.406 11.2039 14.0865 11.1172 13.802 11.1172C13.5119 11.1172 13.2589 11.2074 13.0613 11.3775L13 11.3186C13.0192 11.2992 13.0391 11.2805 13.0597 11.2625C13.0603 11.2619 13.0613 11.2612 13.062 11.2606C13.258 11.0918 13.5084 11.0016 13.7958 11H13.802C14.0865 11 14.406 11.0868 14.7436 11.2697L27 17.9252L26.9997 17.9254L26.9216 18" fill="url(#paint7_linear_310_549)"/>
<defs>
<linearGradient id="paint0_linear_310_549" x1="19.1256" y1="11.9309" x2="10.1259" y2="20.1727" gradientUnits="userSpaceOnUse">
<stop stop-color="#00A0FF"/>
<stop offset="0.00657" stop-color="#00A1FF"/>
<stop offset="0.2601" stop-color="#00BEFF"/>
<stop offset="0.5122" stop-color="#00D2FF"/>
<stop offset="0.7604" stop-color="#00DFFF"/>
<stop offset="1" stop-color="#00E3FF"/>
</linearGradient>
<linearGradient id="paint1_linear_310_549" x1="32.6831" y1="21.4392" x2="11.2582" y2="21.4392" gradientUnits="userSpaceOnUse">
<stop stop-color="#FFE000"/>
<stop offset="0.4087" stop-color="#FFBD00"/>
<stop offset="0.7754" stop-color="#FFA500"/>
<stop offset="1" stop-color="#FF9C00"/>
</linearGradient>
<linearGradient id="paint2_linear_310_549" x1="25.1415" y1="25.0893" x2="10.9685" y2="40.2984" gradientUnits="userSpaceOnUse">
<stop stop-color="#FF3A44"/>
<stop offset="1" stop-color="#C31162"/>
</linearGradient>
<linearGradient id="paint3_linear_310_549" x1="10.2939" y1="9.69169" x2="17.2574" y2="16.4951" gradientUnits="userSpaceOnUse">
<stop stop-color="#32A071"/>
<stop offset="0.0685" stop-color="#2DA771"/>
<stop offset="0.4762" stop-color="#15CF74"/>
<stop offset="0.8009" stop-color="#06E775"/>
<stop offset="1" stop-color="#00F076"/>
</linearGradient>
<linearGradient id="paint4_linear_310_549" x1="25.0745" y1="27.1348" x2="13.4873" y2="39.2975" gradientUnits="userSpaceOnUse">
<stop stop-color="#CC2E36"/>
<stop offset="1" stop-color="#9C0E4E"/>
</linearGradient>
<linearGradient id="paint5_linear_310_549" x1="32.6393" y1="21.9994" x2="12.5887" y2="21.9994" gradientUnits="userSpaceOnUse">
<stop stop-color="#E0C500"/>
<stop offset="0.4087" stop-color="#E0A600"/>
<stop offset="0.7754" stop-color="#E09100"/>
<stop offset="1" stop-color="#E08900"/>
</linearGradient>
<linearGradient id="paint6_linear_310_549" x1="32.6393" y1="22.0009" x2="12.5901" y2="22.0009" gradientUnits="userSpaceOnUse">
<stop stop-color="#FFE840"/>
<stop offset="0.4087" stop-color="#FFCE40"/>
<stop offset="0.7754" stop-color="#FFBC40"/>
<stop offset="1" stop-color="#FFB540"/>
</linearGradient>
<linearGradient id="paint7_linear_310_549" x1="10.367" y1="12.0056" x2="15.5409" y2="17.4368" gradientUnits="userSpaceOnUse">
<stop stop-color="#65B895"/>
<stop offset="0.0685" stop-color="#62BD95"/>
<stop offset="0.4762" stop-color="#50DB97"/>
<stop offset="0.8009" stop-color="#44ED98"/>
<stop offset="1" stop-color="#40F498"/>
</linearGradient>
</defs>
</svg>
